<svg width="693" height="778" viewBox="0 0 693 778" fill="none" xmlns="http://www.w3.org/2000/svg">
<g clip-path="url(#clip0_17_7)">
<path d="M316.166 4.14814C223.849 19.9089 151.467 97.9846 134.55 200.55C130.933 222.183 129.871 247.883 132.07 260.265C137.705 291.521 160.1 315.433 188.527 320.268C207.477 323.492 227.172 316.282 241.889 300.635C255.544 286.053 261.333 271.512 262.934 246.867C264.291 226.455 265.85 218.89 271.379 205.56C281.513 180.869 301.281 162.323 324.976 155.244C335.493 152.013 353.624 151.614 363.639 154.281C393.817 162.583 417.827 189.357 425.478 223.626C428.484 237.061 427.799 258.527 423.742 272.756C415.632 302.122 398.14 322.166 369.674 334.864C352.781 342.361 332.065 358.191 320.009 372.614C290.732 407.987 278.289 449.769 280.584 504.773C281.806 533.635 286.82 548.722 300.099 563.312C314.316 578.954 328.218 585.53 346.885 585.43C365.685 585.48 380.714 578.447 393.702 563.716C407.616 547.621 412.206 533.237 412.978 503.307C413.318 492.121 413.794 481.387 414.184 479.571C414.571 477.151 417.361 475.171 424.941 471.503C456.86 456.217 479.698 438.411 502.219 411.236C563.687 336.695 577.49 225.38 536.469 134.612C530.126 120.438 516.94 98.291 510.365 90.4668C504.059 83.0947 499.521 82.2122 494.618 87.9819C489.979 93.1456 490.537 97.8281 496.45 106.411C516.604 135.021 530.113 167.746 536.842 204.135C540.55 224.369 540.377 266.69 536.623 287.567C523.148 360.642 479.739 421.181 420.686 448.854C405.259 456.192 401.142 459.237 397.049 466.816C394.277 471.97 393.891 474.692 393.346 497.367C392.804 520.494 392.417 523.066 388.997 531.699C382.816 547.754 369.547 559.614 354.627 562.264C334.114 566.001 313.781 553.716 304.865 532.151C300.948 522.801 300.947 522.65 300.931 494.84C300.961 475.493 301.564 463.55 302.858 456.288C311.418 411.504 338.684 374.025 374.993 357.053C399.865 345.433 412.213 335.694 424.52 318.397C432.858 306.866 442.21 285.353 445.067 271.131C448.448 255.242 447.915 230.458 444.101 215.364C433.883 174.761 405.981 143.473 370.592 133.083C357.237 129.074 334.835 128.892 321.655 132.59C301.152 138.292 279.766 153.37 266.928 171.274C252.371 191.605 245.022 213.712 242.918 243.951C241.561 264.363 238.144 273.752 228.864 283.626C219.583 293.349 209.874 297.936 197.74 297.849C178.94 297.95 163.281 287.001 155.313 268.151C151.667 259.555 151.525 258.045 151.555 238.698C151.796 159.347 194.194 84.3037 259.732 47.6778C322.477 12.4271 395.975 18.0785 454.348 62.6548C460.106 67.1582 466.259 70.7526 468.125 70.7426C472.392 70.7197 477.824 64.3426 477.797 59.2038C477.77 54.2163 472.272 48.3512 457.149 37.8523C435.466 22.5521 407.936 10.7595 381.506 5.30902C365.755 2.06838 331.885 1.49438 316.166 4.14814Z" fill="white"/>
<path d="M335.905 626.298C301.673 632.981 277.085 672.41 282.63 711.829C284.294 723.76 290.11 739.145 293.587 741.243C297.334 743.641 303.597 743.003 305.714 739.969C309.421 734.961 309.537 731.786 305.883 721.679C300.74 707.499 300.66 692.537 305.659 679.965C316.182 653.156 343.315 640.617 365.644 652.135C386.636 663.056 398.106 688.538 392.636 712.75C386.906 738.324 366.727 754.604 343.383 752.614C334.978 751.752 333.379 752.063 330.327 754.8C325.683 758.905 325.723 766.462 330.148 771.124C332.696 773.831 335.368 774.724 343.904 775.282C362.979 776.691 380.405 769.192 394.322 753.549C432.757 710.419 411.289 635.567 357.904 626.029C348.295 624.418 345.628 624.432 335.905 626.298Z" fill="white"/>
</g>
<defs>
<clipPath id="clip0_17_7">
<rect width="687.582" height="773" fill="white" transform="translate(0.322388 4.30664) rotate(-0.307391)"/>
</clipPath>
</defs>
</svg>
